<svg width="20" height="20" viewBox="0 0 20 20" fill="none" xmlns="http://www.w3.org/2000/svg">
<path fill-rule="evenodd" clip-rule="evenodd" d="M6.05711 1.17378C6.18838 1.0425 6.36643 0.96875 6.55208 0.96875H13.4521C13.6377 0.96875 13.8158 1.0425 13.9471 1.17378L18.8304 6.05711C18.9617 6.18838 19.0354 6.36643 19.0354 6.55208V13.4521C19.0354 13.6377 18.9617 13.8158 18.8304 13.9471L13.9471 18.8304C13.8158 18.9617 13.6377 19.0354 13.4521 19.0354H6.55208C6.36643 19.0354 6.18838 18.9617 6.05711 18.8304L1.17378 13.9471C1.0425 13.8158 0.96875 13.6377 0.96875 13.4521V6.55208C0.96875 6.36643 1.0425 6.18838 1.17378 6.05711L6.05711 1.17378ZM6.84203 2.36875L2.36875 6.84203V13.1621L6.84203 17.6354H13.1621L17.6354 13.1621V6.84203L13.1621 2.36875H6.84203ZM10.0047 5.96875C10.3913 5.96875 10.7047 6.28215 10.7047 6.66875V10.0021C10.7047 10.3887 10.3913 10.7021 10.0047 10.7021C9.61809 10.7021 9.30469 10.3887 9.30469 10.0021V6.66875C9.30469 6.28215 9.61809 5.96875 10.0047 5.96875ZM10.7047 13.0047C10.7047 12.6181 10.3913 12.3047 10.0047 12.3047C9.61809 12.3047 9.30469 12.6181 9.30469 13.0047V13.2627C9.30469 13.6493 9.61809 13.9627 10.0047 13.9627C10.3913 13.9627 10.7047 13.6493 10.7047 13.2627V13.0047Z" fill="#CCD1E5"/>
</svg>
