<svg width="14" height="14" viewBox="0 0 14 14" fill="none" xmlns="http://www.w3.org/2000/svg">
<path fill-rule="evenodd" clip-rule="evenodd" d="M0.395583 12.3956C0.0608475 12.7303 0.0608475 13.273 0.395583 13.6078C0.730318 13.9425 1.27303 13.9425 1.60777 13.6078L7.00167 8.21386L12.3956 13.6078C12.7303 13.9425 13.273 13.9425 13.6078 13.6078C13.9425 13.273 13.9425 12.7303 13.6078 12.3956L8.21386 7.00167L13.6078 1.60777C13.9425 1.27303 13.9425 0.730318 13.6078 0.395583C13.273 0.0608473 12.7303 0.0608474 12.3956 0.395583L7.00167 5.78949L1.60777 0.395584C1.27303 0.0608486 0.730318 0.0608486 0.395583 0.395584C0.0608475 0.730319 0.0608475 1.27303 0.395583 1.60777L5.78949 7.00167L0.395583 12.3956Z" fill="#B0BBCB"/>
</svg>
