<svg width="17" height="17" viewBox="0 0 17 17" fill="none" xmlns="http://www.w3.org/2000/svg">
<path fill-rule="evenodd" clip-rule="evenodd" d="M2.54901 1.76249C2.15923 1.76249 1.7623 2.11598 1.7623 2.65539V10.6199C1.7623 11.1593 2.15923 11.5128 2.54901 11.5128H8.85956C8.8622 11.5128 8.86484 11.5128 8.86748 11.5128C8.87012 11.5128 8.87276 11.5128 8.8754 11.5128H14.4427C14.8325 11.5128 15.2294 11.1593 15.2294 10.6199V2.65539C15.2294 2.11598 14.8325 1.76249 14.4427 1.76249H2.54901ZM9.56748 12.9128H14.4427C15.6951 12.9128 16.6294 11.84 16.6294 10.6199V2.65539C16.6294 1.43533 15.6951 0.362488 14.4427 0.362488H2.54901C1.29662 0.362488 0.362305 1.43533 0.362305 2.65539V10.6199C0.362305 11.84 1.29662 12.9128 2.54901 12.9128H8.16748V15.2296H5.15081C4.76421 15.2296 4.45081 15.543 4.45081 15.9296C4.45081 16.3162 4.76421 16.6296 5.15081 16.6296H12.5843C12.9709 16.6296 13.2843 16.3162 13.2843 15.9296C13.2843 15.543 12.9709 15.2296 12.5843 15.2296H9.56748V12.9128ZM6.56096 5.52252C6.94756 5.52252 7.26096 5.83592 7.26096 6.22252V8.71296C7.26096 9.09956 6.94756 9.41296 6.56096 9.41296C6.17436 9.41296 5.86096 9.09956 5.86096 8.71296V6.22252C5.86096 5.83592 6.17436 5.52252 6.56096 5.52252ZM11.1307 4.56224C11.1307 4.17564 10.8173 3.86224 10.4307 3.86224C10.0441 3.86224 9.73071 4.17564 9.73071 4.56224V8.71297C9.73071 9.09957 10.0441 9.41297 10.4307 9.41297C10.8173 9.41297 11.1307 9.09957 11.1307 8.71297V4.56224Z" fill="#657ACB"/>
</svg>
