<svg width="17" height="17" viewBox="0 0 17 17" fill="none" xmlns="http://www.w3.org/2000/svg">
<path fill-rule="evenodd" clip-rule="evenodd" d="M2.54999 1.76328C2.16021 1.76328 1.76328 2.11677 1.76328 2.65618V10.6207C1.76328 11.1601 2.16021 11.5136 2.54999 11.5136H8.86054C8.86317 11.5136 8.86581 11.5135 8.86846 11.5135C8.8711 11.5135 8.87374 11.5136 8.87638 11.5136H14.4437C14.8334 11.5136 15.2304 11.1601 15.2304 10.6207V2.65618C15.2304 2.11677 14.8334 1.76328 14.4437 1.76328H2.54999ZM9.56846 12.9136H14.4437C15.696 12.9136 16.6304 11.8408 16.6304 10.6207V2.65618C16.6304 1.43612 15.696 0.363281 14.4437 0.363281H2.54999C1.2976 0.363281 0.363281 1.43612 0.363281 2.65618V10.6207C0.363281 11.8408 1.2976 12.9136 2.54999 12.9136H8.16846V15.2303H5.15178C4.76518 15.2303 4.45178 15.5437 4.45178 15.9303C4.45178 16.3169 4.76518 16.6303 5.15178 16.6303H12.5853C12.9719 16.6303 13.2853 16.3169 13.2853 15.9303C13.2853 15.5437 12.9719 15.2303 12.5853 15.2303H9.56846V12.9136ZM6.56194 5.52332C6.94854 5.52332 7.26194 5.83672 7.26194 6.22332V8.71375C7.26194 9.10035 6.94854 9.41375 6.56194 9.41375C6.17534 9.41375 5.86194 9.10035 5.86194 8.71375V6.22332C5.86194 5.83672 6.17534 5.52332 6.56194 5.52332ZM11.1317 4.56304C11.1317 4.17644 10.8183 3.86304 10.4317 3.86304C10.0451 3.86304 9.73169 4.17644 9.73169 4.56304V8.71377C9.73169 9.10037 10.0451 9.41377 10.4317 9.41377C10.8183 9.41377 11.1317 9.10037 11.1317 8.71377V4.56304Z" fill="#8492A5"/>
</svg>
