<svg width="12" height="12" viewBox="0 0 12 12" fill="none" xmlns="http://www.w3.org/2000/svg">
<path fill-rule="evenodd" clip-rule="evenodd" d="M11.682 1.59108C12.0335 1.23961 12.0335 0.669763 11.682 0.318291C11.3305 -0.0331805 10.7607 -0.0331804 10.4092 0.318291L6.00014 4.72735L1.59108 0.318291C1.23961 -0.0331804 0.669763 -0.0331805 0.318291 0.318291C-0.0331804 0.669763 -0.0331805 1.23961 0.318291 1.59108L4.72735 6.00014L0.318291 10.4092C-0.0331805 10.7607 -0.0331804 11.3305 0.318291 11.682C0.669763 12.0335 1.23961 12.0335 1.59108 11.682L6.00014 7.27294L10.4092 11.682C10.7607 12.0335 11.3305 12.0335 11.682 11.682C12.0335 11.3305 12.0335 10.7607 11.682 10.4092L7.27293 6.00014L11.682 1.59108Z" fill="#B0BBCB"/>
</svg>
