<svg width="18" height="18" viewBox="0 0 18 18" fill="none" xmlns="http://www.w3.org/2000/svg">
<path fill-rule="evenodd" clip-rule="evenodd" d="M9.1508 2.3093C8.24937 1.91116 7.26936 1.7227 6.28455 1.75812C5.29975 1.79353 4.33581 2.05189 3.46531 2.51376C2.5948 2.97562 1.84042 3.62894 1.25894 4.42454C0.677466 5.22014 0.284056 6.13729 0.108328 7.10694C-0.0674011 8.07658 -0.0208692 9.07346 0.24442 10.0225C0.50971 10.9716 0.986844 11.8481 1.6399 12.5861C1.8961 12.8756 2.3385 12.9026 2.62801 12.6464C2.91753 12.3902 2.94454 11.9478 2.68833 11.6583C2.17561 11.0789 1.80101 10.3907 1.59273 9.64563C1.38445 8.90052 1.34792 8.11787 1.48589 7.35659C1.62385 6.59532 1.93272 5.87526 2.38924 5.25063C2.84576 4.626 3.43803 4.11308 4.12146 3.75047C4.8049 3.38786 5.56169 3.18502 6.33487 3.15721C7.10804 3.12941 7.87745 3.27736 8.58517 3.58994C9.29288 3.90253 9.92047 4.37158 10.4207 4.96181C10.9209 5.55203 11.2807 6.24804 11.473 6.99744C11.5524 7.307 11.8314 7.52346 12.151 7.52346H13.0674C13.6911 7.52297 14.2987 7.72125 14.8021 8.08951C15.3055 8.45777 15.6785 8.97686 15.8669 9.57145C16.0553 10.166 16.0493 10.8052 15.8498 11.3961C15.6503 11.9871 15.2677 12.4991 14.7575 12.8579C14.4413 13.0803 14.3652 13.5169 14.5875 13.8332C14.8099 14.1494 15.2466 14.2255 15.5628 14.0031C16.3164 13.4731 16.8816 12.7168 17.1763 11.8439C17.4709 10.971 17.4798 10.0269 17.2015 9.1486C16.9232 8.27032 16.3723 7.50356 15.6287 6.95959C14.8853 6.41572 13.9874 6.12285 13.0663 6.12346L12.6701 6.12346C12.4071 5.36929 12.0071 4.66837 11.4887 4.05666C10.8516 3.30488 10.0522 2.70744 9.1508 2.3093ZM8.70452 8.30359C9.09112 8.30359 9.40452 8.61699 9.40452 9.00359V13.856L11.1162 12.1442C11.3896 11.8709 11.8328 11.8709 12.1062 12.1442C12.3796 12.4176 12.3796 12.8608 12.1062 13.1342L9.1988 16.0416C9.06752 16.1728 8.88948 16.2466 8.70382 16.2466C8.51817 16.2466 8.34013 16.1728 8.20885 16.0416L5.30146 13.1342C5.02809 12.8608 5.02809 12.4176 5.30146 12.1442C5.57483 11.8709 6.01804 11.8709 6.29141 12.1442L8.00452 13.8573V9.00359C8.00452 8.61699 8.31792 8.30359 8.70452 8.30359Z" fill="#657ACB"/>
</svg>
