<svg width="16" height="16" viewBox="0 0 16 16" fill="none" xmlns="http://www.w3.org/2000/svg">
<path fill-rule="evenodd" clip-rule="evenodd" d="M12.8278 2.16388C12.9617 2.02993 13.1434 1.95469 13.3328 1.95469C13.5222 1.95469 13.7039 2.02993 13.8379 2.16388C13.9718 2.29782 14.047 2.47948 14.047 2.6689C14.047 2.85832 13.9718 3.03999 13.8379 3.17393L7.64162 9.37016L6.29489 9.70684L6.63157 8.36011L12.8278 2.16388ZM13.3328 0.554688C12.7721 0.554688 12.2343 0.777434 11.8379 1.17393L5.50452 7.50726C5.41481 7.59697 5.35116 7.70938 5.32039 7.83246L4.65373 10.4991C4.59409 10.7377 4.66399 10.99 4.83785 11.1639C5.01172 11.3377 5.26406 11.4076 5.5026 11.348L8.16927 10.6813C8.29235 10.6506 8.40476 10.5869 8.49447 10.4972L14.8278 4.16388C15.2243 3.76738 15.447 3.22963 15.447 2.6689C15.447 2.10818 15.2243 1.57042 14.8278 1.17393C14.4313 0.777434 13.8936 0.554688 13.3328 0.554688ZM2.66615 1.96875C2.12687 1.96875 1.60969 2.18298 1.22836 2.5643C0.847038 2.94562 0.632812 3.46281 0.632812 4.00208V13.3354C0.632812 13.8747 0.847038 14.3919 1.22836 14.7732C1.60969 15.1545 2.12687 15.3688 2.66615 15.3688H11.9995C12.5388 15.3688 13.0559 15.1545 13.4373 14.7732C13.8186 14.3919 14.0328 13.8747 14.0328 13.3354V8.66875C14.0328 8.28215 13.7194 7.96875 13.3328 7.96875C12.9462 7.96875 12.6328 8.28215 12.6328 8.66875V13.3354C12.6328 13.5034 12.5661 13.6645 12.4473 13.7833C12.3285 13.902 12.1674 13.9688 11.9995 13.9688H2.66615C2.49818 13.9688 2.33708 13.902 2.21831 13.7833C2.09954 13.6645 2.03281 13.5034 2.03281 13.3354V4.00208C2.03281 3.83411 2.09954 3.67302 2.21831 3.55425C2.33708 3.43548 2.49818 3.36875 2.66615 3.36875H7.33281C7.71941 3.36875 8.03281 3.05535 8.03281 2.66875C8.03281 2.28215 7.71941 1.96875 7.33281 1.96875H2.66615Z" fill="#657ACB"/>
</svg>
