<svg width="17" height="17" viewBox="0 0 17 17" fill="none" xmlns="http://www.w3.org/2000/svg">
<path d="M5.16797 8.50641C5.16797 10.2689 6.5994 11.7003 8.36188 11.7003C10.1244 11.7003 11.5558 10.2689 11.5558 8.50641C11.5558 6.74393 10.1244 5.3125 8.36188 5.3125C6.5994 5.3125 5.16797 6.74393 5.16797 8.50641ZM8.37121 9.75134L10.3249 7.37805C10.516 7.7091 10.6279 8.0961 10.6279 8.50641C10.6279 9.756 9.61147 10.7678 8.36654 10.7678C7.12162 10.7678 6.10516 9.75134 6.10516 8.50641C6.10516 7.26148 7.12162 6.24503 8.36654 6.24503C8.86545 6.24503 9.32238 6.40822 9.6954 6.67865L8.35722 8.30592L7.59254 7.42002L6.88382 8.03082L8.37121 9.75134Z" fill="#D3DCE6"/>
<path d="M13.7455 11.2883C12.7244 13.2186 10.7241 14.4402 8.5 14.4402C5.22682 14.4402 2.56445 11.7778 2.56445 8.50466C2.56445 5.23149 5.22682 2.56912 8.5 2.56912C9.53977 2.56912 10.5516 2.83955 11.4421 3.34778L10.3371 4.12178L15.4334 6.49973L14.9484 0.895228L13.6942 1.7718C12.2115 0.624794 10.3884 0 8.5 0C3.81404 0 0 3.81404 0 8.5C0 13.186 3.81404 17 8.5 17C10.2159 17 11.8711 16.4918 13.2885 15.5266C14.4728 14.72 15.424 13.6336 16.0721 12.37L13.7455 11.2883Z" fill="#D3DCE6"/>
</svg>
