<svg width="18" height="18" viewBox="0 0 18 18" fill="none" xmlns="http://www.w3.org/2000/svg">
<path d="M15.7873 6.47903C15.7557 6.40532 15.7136 6.33161 15.6504 6.27897L10.4489 1.07744C10.3962 1.02479 10.3225 0.972143 10.2488 0.940555C10.1751 0.919496 10.0909 0.898438 10.0066 0.898438H4.8051C4.25757 0.898438 3.71004 1.11956 3.32045 1.51967C2.92034 1.91979 2.69922 2.44626 2.69922 3.00432V14.892C2.69922 15.4501 2.92034 15.9871 3.32045 16.3872C3.71004 16.7768 4.25757 17.0084 4.81563 17.0084H13.734C14.2921 17.0084 14.8291 16.7873 15.2292 16.3872C15.6188 15.9976 15.8504 15.4501 15.8504 14.892V6.7212C15.8399 6.63697 15.8189 6.55273 15.7873 6.47903ZM14.5869 14.892C14.5869 15.1131 14.4922 15.3448 14.3342 15.5027C14.1763 15.6607 13.9552 15.7554 13.7235 15.7554H4.8051C4.57345 15.7554 4.35234 15.6607 4.19439 15.5027C4.03645 15.3448 3.94169 15.1237 3.94169 14.892V3.00432C3.94169 2.77267 4.03645 2.56208 4.19439 2.39361C4.35234 2.23567 4.57345 2.14091 4.8051 2.14091H9.38539V6.7212C9.38539 7.06867 9.66969 7.34244 10.0066 7.34244H14.5869V14.892Z" fill="#657ACB"/>
</svg>
