<svg width="14" height="14" viewBox="0 0 14 14" fill="none" xmlns="http://www.w3.org/2000/svg">
<path fill-rule="evenodd" clip-rule="evenodd" d="M2.40703 0.175781C2.02043 0.175781 1.70703 0.489182 1.70703 0.875781V3.99114V13.0594C1.70703 13.3425 1.8775 13.5977 2.13899 13.7061C2.40047 13.8145 2.7015 13.7547 2.90176 13.5547L7.23915 9.22165L11.5351 13.5524C11.7348 13.7538 12.0363 13.8147 12.2986 13.7067C12.5609 13.5987 12.732 13.3431 12.732 13.0594V0.875781C12.732 0.489182 12.4186 0.175781 12.032 0.175781H2.40703ZM3.10703 4.69114H8.50079C8.88739 4.69114 9.20079 4.37774 9.20079 3.99114C9.20079 3.60454 8.88739 3.29114 8.50079 3.29114H3.10703V1.57578H11.332V11.3598L7.73838 7.73698C7.60733 7.60487 7.42908 7.53038 7.243 7.52995C7.05692 7.52953 6.87833 7.60322 6.74668 7.73473L3.10703 11.3707V4.69114Z" fill="#8492A5"/>
</svg>
