<svg width="17" height="17" viewBox="0 0 17 17" fill="none" xmlns="http://www.w3.org/2000/svg">
<path fill-rule="evenodd" clip-rule="evenodd" d="M8.50208 2.11484C4.97667 2.11484 2.11875 4.97276 2.11875 8.49818C2.11875 12.0236 4.97667 14.8815 8.50208 14.8815C12.0275 14.8815 14.8854 12.0236 14.8854 8.49818C14.8854 4.97276 12.0275 2.11484 8.50208 2.11484ZM0.71875 8.49818C0.71875 4.19956 4.20347 0.714844 8.50208 0.714844C12.8007 0.714844 16.2854 4.19956 16.2854 8.49818C16.2854 12.7968 12.8007 16.2815 8.50208 16.2815C4.20347 16.2815 0.71875 12.7968 0.71875 8.49818ZM8.68641 5.67369C8.35472 5.6168 8.01361 5.67913 7.72348 5.84964C7.43334 6.02015 7.21292 6.28784 7.10125 6.6053C6.97296 6.97 6.57332 7.16164 6.20862 7.03335C5.84393 6.90506 5.65229 6.50541 5.78058 6.14072C6.00197 5.51138 6.43895 4.98069 7.01412 4.64266C7.58929 4.30462 8.26554 4.18106 8.92309 4.29384C9.58063 4.40663 10.177 4.74849 10.6067 5.25888C11.0362 5.76909 11.2713 6.4148 11.2705 7.08171C11.2703 8.16145 10.4698 8.87522 9.89629 9.25753C9.58822 9.46291 9.28513 9.61395 9.06182 9.7132C8.94917 9.76327 8.85433 9.80125 8.786 9.82728C8.75178 9.84032 8.72404 9.85042 8.70387 9.85759L8.67935 9.86618L8.67155 9.86884L8.66881 9.86977L8.66773 9.87013C8.30097 9.99238 7.90367 9.79447 7.78142 9.4277C7.65916 9.06094 7.85738 8.66452 8.22414 8.54227L8.23485 8.53849C8.2458 8.5346 8.26372 8.5281 8.28761 8.519C8.33549 8.50076 8.40666 8.47234 8.49323 8.43386C8.66836 8.35603 8.89652 8.24145 9.11971 8.09266C9.60868 7.76668 9.87049 7.41807 9.87049 7.08135L9.8705 7.0803C9.871 6.74378 9.75238 6.41793 9.53566 6.16048C9.31893 5.90303 9.01809 5.73058 8.68641 5.67369ZM8.9542 11.7499C8.9542 11.3633 8.6408 11.0499 8.2542 11.0499C7.8676 11.0499 7.5542 11.3633 7.5542 11.7499V12.096C7.5542 12.4826 7.8676 12.796 8.2542 12.796C8.6408 12.796 8.9542 12.4826 8.9542 12.096V11.7499Z" fill="#A6AECD"/>
</svg>
