<svg width="14" height="14" viewBox="0 0 14 14" fill="none" xmlns="http://www.w3.org/2000/svg">
<path fill-rule="evenodd" clip-rule="evenodd" d="M2.03333 1.4C1.86536 1.4 1.70427 1.46673 1.5855 1.5855C1.46673 1.70427 1.4 1.86536 1.4 2.03333V11.3667C1.4 11.5346 1.46673 11.6957 1.5855 11.8145C1.70427 11.9333 1.86536 12 2.03333 12H4.7C5.0866 12 5.4 12.3134 5.4 12.7C5.4 13.0866 5.0866 13.4 4.7 13.4H2.03333C1.49406 13.4 0.976873 13.1858 0.595549 12.8045C0.214226 12.4231 0 11.9059 0 11.3667V2.03333C0 1.49406 0.214225 0.976874 0.595549 0.595549C0.976874 0.214225 1.49406 0 2.03333 0H4.7C5.0866 0 5.4 0.313401 5.4 0.7C5.4 1.0866 5.0866 1.4 4.7 1.4H2.03333ZM8.87202 2.87171C9.14538 2.59835 9.5886 2.59835 9.86197 2.87171L13.1953 6.20505C13.4687 6.47841 13.4687 6.92163 13.1953 7.19499L9.86197 10.5283C9.5886 10.8017 9.14538 10.8017 8.87202 10.5283C8.59865 10.255 8.59865 9.81174 8.87202 9.53838L11.0104 7.4H4.7C4.3134 7.4 4 7.0866 4 6.7C4 6.3134 4.3134 6 4.7 6H11.0104L8.87202 3.86166C8.59865 3.58829 8.59865 3.14508 8.87202 2.87171Z" fill="#657ACB"/>
</svg>
