<svg width="10" height="12" viewBox="0 0 10 12" fill="none" xmlns="http://www.w3.org/2000/svg">
<path fill-rule="evenodd" clip-rule="evenodd" d="M2.33378 2.31585C3.0433 1.60175 4.00265 1.20312 5 1.20312C5.99735 1.20312 6.9567 1.60175 7.66622 2.31585C8.37619 3.0304 8.77743 4.00237 8.77743 5.01861C8.77743 6.4996 7.81775 7.94952 6.74591 9.08821C6.22167 9.64514 5.69547 10.1014 5.29972 10.4186C5.18802 10.5081 5.08709 10.5862 5 10.6521C4.91291 10.5862 4.81198 10.5081 4.70028 10.4186C4.30453 10.1014 3.77833 9.64514 3.25409 9.08821C2.18225 7.94952 1.22257 6.4996 1.22257 5.01861C1.22257 4.00237 1.62381 3.0304 2.33378 2.31585ZM4.65532 11.8956C4.65532 11.8956 4.65564 11.8958 5 11.3988C5.34436 11.8958 5.3451 11.8953 5.3451 11.8953C5.13737 12.0347 4.86305 12.035 4.65532 11.8956ZM4.65532 11.8956L5 11.3988L5.3451 11.8953L5.34624 11.8946L5.34971 11.8922L5.36133 11.8843L5.40262 11.8558C5.43789 11.8312 5.48833 11.7955 5.55176 11.7494C5.67858 11.6572 5.85771 11.523 6.07175 11.3515C6.49889 11.0091 7.06986 10.5145 7.64281 9.90581C8.76532 8.71328 10 6.97311 10 5.01861C10 3.6919 9.47648 2.41688 8.54036 1.47472C7.60379 0.532107 6.33057 0 5 0C3.66943 0 2.39621 0.532107 1.45964 1.47472C0.523524 2.41688 0 3.6919 0 5.01861C0 6.97311 1.23468 8.71328 2.35719 9.90581C2.93014 10.5145 3.50111 11.0091 3.92825 11.3515C4.14229 11.523 4.32142 11.6572 4.44824 11.7494C4.51168 11.7955 4.56211 11.8312 4.59738 11.8558L4.63867 11.8843L4.65029 11.8922L4.65376 11.8946L4.65532 11.8956ZM3.73038 5.07361C3.73038 4.38359 4.2988 3.82421 4.99998 3.82421C5.70115 3.82421 6.26957 4.38359 6.26957 5.07361C6.26957 5.76363 5.70115 6.323 4.99998 6.323C4.2988 6.323 3.73038 5.76363 3.73038 5.07361ZM4.99998 2.62109C3.62359 2.62109 2.50781 3.71912 2.50781 5.07361C2.50781 6.42809 3.62359 7.52612 4.99998 7.52612C6.37636 7.52612 7.49214 6.42809 7.49214 5.07361C7.49214 3.71912 6.37636 2.62109 4.99998 2.62109Z" fill="#3B4857"/>
</svg>
