<svg width="26" height="20" viewBox="0 0 26 20" fill="none" xmlns="http://www.w3.org/2000/svg">
<path fill-rule="evenodd" clip-rule="evenodd" d="M0 1C0 0.447715 0.447715 0 1 0H25C25.5523 0 26 0.447715 26 1C26 1.55228 25.5523 2 25 2H1C0.447716 2 0 1.55228 0 1ZM0 10C0 9.44771 0.447715 9 1 9H25C25.5523 9 26 9.44771 26 10C26 10.5523 25.5523 11 25 11H1C0.447716 11 0 10.5523 0 10ZM1 18C0.447715 18 0 18.4477 0 19C0 19.5523 0.447716 20 1 20H25C25.5523 20 26 19.5523 26 19C26 18.4477 25.5523 18 25 18H1Z" fill="#8492A5"/>
</svg>
