<svg width="66" height="66" viewBox="0 0 66 66" fill="none" xmlns="http://www.w3.org/2000/svg">
<g clip-path="url(#clip0_1745_154736)">
<path d="M65.4 37.0031V36.9031C65.3 36.8031 65.2 36.7031 65.1 36.6031C64.7 36.1031 64.2 35.7031 63.6 35.4031L51.2 29.0031C50.7 28.8031 50.2 28.6031 49.7 28.5031C49.9 28.0031 50 27.5031 50 27.0031V14.2031C50 13.5031 49.8 12.8031 49.4 12.2031V12.1031C49.3 12.0031 49.2 11.9031 49.1 11.8031C48.7 11.3031 48.2 10.9031 47.6 10.6031L35.2 4.10312C33.8 3.40312 32.1 3.40312 30.7 4.10312L18.3 10.5031C17.7 10.8031 17.2 11.2031 16.8 11.7031C16.7 11.8031 16.6 11.9031 16.5 12.0031V12.1031C16.1 12.7031 15.9 13.4031 15.9 14.1031V26.9031C15.9 27.4031 16 27.9031 16.2 28.4031C15.7 28.5031 15.1 28.6031 14.7 28.9031L2.3 35.3031C1.7 35.6031 1.2 36.0031 0.8 36.5031C0.7 36.6031 0.6 36.7031 0.5 36.8031V36.9031C0.2 37.6031 0 38.3031 0 39.0031V51.8031C0 52.6031 0.2 53.3031 0.6 53.9031C1 54.5031 1.6 55.1031 2.3 55.4031L14.7 61.8031C15.4 62.2031 16.2 62.3031 16.9 62.3031C17.6 62.3031 18.5 62.1031 19.1 61.8031L31.5 55.4031C32 55.1031 32.5 54.8031 32.8 54.4031C33.2 54.8031 33.6 55.2031 34.1 55.4031L46.5 61.8031C47.2 62.2031 48 62.3031 48.7 62.3031C49.4 62.3031 50.3 62.1031 50.9 61.8031L63.3 55.4031C64 55.0031 64.6 54.5031 65 53.9031C65.4 53.3031 65.6 52.5031 65.6 51.8031V39.0031C66 38.3031 65.8 37.6031 65.4 37.0031ZM50.3 30.7031L62.7 37.1031L49 44.3031L35.2 37.1031L47.6 30.7031C48 30.5031 48.5 30.4031 48.9 30.4031C49.3 30.4031 49.9 30.5031 50.3 30.7031ZM48 14.2031V27.0031C48 27.4031 47.9 27.7031 47.7 28.1031C47.5 28.4031 47.2 28.7031 46.8 28.9031L34.3 35.3031C34.2 35.4031 34.1 35.4031 34 35.4031V21.2031L48 13.9031C48 14.0031 48 14.1031 48 14.2031ZM32 35.4031C31.9 35.4031 31.8 35.3031 31.7 35.3031L19.3 28.9031C18.9 28.7031 18.6 28.4031 18.4 28.1031C18.2 27.8031 18.1 27.4031 18.1 27.0031V14.2031C18.1 14.1031 18.1 14.0031 18.1 14.0031L32.1 21.3031V35.4031H32ZM19.2 12.3031L31.6 5.90313C32.1 5.70312 32.5 5.60313 33 5.60313C33.5 5.60313 33.9 5.70312 34.3 5.90313L46.7 12.3031L33 19.5031L19.2 12.3031ZM3.2 37.1031L15.6 30.7031C16 30.5031 16.5 30.4031 16.9 30.4031C17.3 30.4031 17.8 30.5031 18.2 30.7031L30.6 37.1031L17 44.3031L3.2 37.1031ZM3.2 53.7031C2.8 53.5031 2.5 53.2031 2.3 52.9031C2.1 52.5031 2 52.2031 2 51.8031V39.0031C2 38.9031 2 38.8031 2 38.8031L16 46.1031V60.3031C15.9 60.3031 15.8 60.2031 15.7 60.2031L3.2 53.7031ZM31.7 52.9031C31.5 53.2031 31.2 53.5031 30.8 53.7031L18.4 60.1031C18.3 60.2031 18.2 60.2031 18.1 60.2031V46.0031L32.1 38.7031C32.1 38.8031 32.1 38.9031 32.1 38.9031V51.7031C32 52.2031 31.9 52.5031 31.7 52.9031ZM35.2 53.7031C34.8 53.5031 34.5 53.2031 34.3 52.9031C34.1 52.6031 34 52.2031 34 51.8031V39.0031C34 38.9031 34 38.8031 34 38.8031L48 46.1031V60.3031C47.9 60.3031 47.8 60.2031 47.7 60.2031L35.2 53.7031ZM64 51.8031C64 52.2031 63.9 52.5031 63.7 52.9031C63.5 53.2031 63.2 53.5031 62.8 53.7031L50.3 60.1031C50.2 60.2031 50.1 60.2031 50 60.2031V46.0031L64 38.7031C64 38.8031 64 38.9031 64 38.9031V51.8031Z" fill="#B0BBCB"/>
</g>
<defs>
<clipPath id="clip0_1745_154736">
<rect width="66" height="58.8" fill="white" transform="translate(0 3.60156)"/>
</clipPath>
</defs>
</svg>
