<svg width="12" height="12" viewBox="0 0 12 12" fill="none" xmlns="http://www.w3.org/2000/svg">
<path fill-rule="evenodd" clip-rule="evenodd" d="M0.351562 2.00156C0.351562 1.64258 0.642577 1.35156 1.00156 1.35156H11.0016C11.3605 1.35156 11.6516 1.64258 11.6516 2.00156C11.6516 2.36055 11.3605 2.65156 11.0016 2.65156L1.00156 2.65156C0.642577 2.65156 0.351562 2.36055 0.351562 2.00156ZM2.85156 6.00156C2.85156 5.64258 3.14258 5.35156 3.50156 5.35156H11.0016C11.3605 5.35156 11.6516 5.64258 11.6516 6.00156C11.6516 6.36055 11.3605 6.65156 11.0016 6.65156H3.50156C3.14258 6.65156 2.85156 6.36055 2.85156 6.00156ZM7.00156 9.35156C6.64258 9.35156 6.35156 9.64258 6.35156 10.0016C6.35156 10.3605 6.64258 10.6516 7.00156 10.6516H11.0016C11.3605 10.6516 11.6516 10.3605 11.6516 10.0016C11.6516 9.64258 11.3605 9.35156 11.0016 9.35156H7.00156Z" fill="#A6AECD"/>
</svg>
