<svg width="14" height="14" viewBox="0 0 14 14" fill="none" xmlns="http://www.w3.org/2000/svg">
<path fill-rule="evenodd" clip-rule="evenodd" d="M6.99955 0.0507812C6.65788 0.0507812 6.32222 0.140566 6.02619 0.311126L6.02468 0.311995L1.65334 2.80989L1.65064 2.81145C1.41318 2.94855 1.20797 3.1338 1.04776 3.35447C1.00603 3.39643 0.968969 3.44441 0.937941 3.49805C0.911223 3.54424 0.89037 3.59221 0.875154 3.6411C0.744536 3.90742 0.676087 4.20101 0.675781 4.49868V9.4983C0.676132 9.84021 0.766388 10.176 0.937495 10.472C1.1086 10.768 1.35454 11.0139 1.65064 11.1848L1.65335 11.1864L6.02468 13.6843L6.02622 13.6852C6.32224 13.8557 6.65789 13.9455 6.99955 13.9455C7.34121 13.9455 7.67685 13.8557 7.97287 13.6852L7.97441 13.6843L12.3457 11.1864L12.3485 11.1848C12.6446 11.0139 12.8905 10.768 13.0616 10.472C13.2327 10.176 13.323 9.83949 13.3233 9.49758L13.3233 4.49796C13.323 4.19761 13.2533 3.90197 13.1204 3.63388C13.1054 3.58749 13.0853 3.54196 13.0599 3.49805C13.03 3.44644 12.9946 3.40008 12.9548 3.35927C12.7941 3.13648 12.5876 2.94954 12.3485 2.81144L7.97441 0.311995L7.9729 0.311126C7.67688 0.140566 7.34122 0.0507812 6.99955 0.0507812ZM2.07578 9.49714V4.96493L6.29688 7.40668V12.2274L2.35064 9.97238L2.34963 9.97179C2.2666 9.92362 2.19762 9.85453 2.14957 9.77141C2.10137 9.68803 2.07593 9.59345 2.07578 9.49714ZM7.69688 12.2304L11.6485 9.97238L11.6494 9.9718C11.7325 9.92363 11.8015 9.85454 11.8495 9.77141C11.8977 9.68812 11.9231 9.59366 11.9233 9.49747L11.9233 4.9642L7.69688 7.40905V12.2304ZM7.27441 1.52444L11.1979 3.76645L9.81714 4.56519L5.66026 2.13268L6.72198 1.52599L6.72468 1.52443C6.80825 1.47618 6.90305 1.45078 6.99955 1.45078C7.09604 1.45078 7.19084 1.47619 7.27441 1.52444ZM6.99892 6.19543L8.42316 5.37156L4.25781 2.93408L2.80053 3.76681L6.99892 6.19543Z" fill="#8492A5"/>
</svg>
