<svg width="17" height="17" viewBox="0 0 17 17" fill="none" xmlns="http://www.w3.org/2000/svg">
<path fill-rule="evenodd" clip-rule="evenodd" d="M3.08867 0.620304C3.2185 0.425565 3.43706 0.308594 3.67111 0.308594H10.8618C11.0958 0.308594 11.3144 0.425565 11.4442 0.620304L13.8411 4.21564C13.9178 4.33062 13.9587 4.46573 13.9587 4.60393V7.61628C15.7119 8.29702 16.9548 10.0005 16.9548 11.9943C16.9548 14.5872 14.8528 16.6892 12.2599 16.6892C10.2661 16.6892 8.5626 15.4463 7.88186 13.693H1.27422C0.887619 13.693 0.574219 13.3796 0.574219 12.993V4.60393C0.574219 4.46573 0.615125 4.33062 0.691784 4.21564L3.08867 0.620304ZM12.5587 5.20406V7.30888C12.4599 7.30268 12.3603 7.29953 12.2599 7.29953C9.66706 7.29953 7.56512 9.40147 7.56512 11.9943C7.56512 12.0947 7.56827 12.1943 7.57447 12.293H1.97422V5.20406H12.5587ZM2.64876 3.80406L4.04574 1.70859H6.56644V3.80406H2.64876ZM7.96644 3.80406H11.8841L10.4871 1.70859H7.96644V3.80406ZM12.2599 8.69953C10.4403 8.69953 8.96512 10.1747 8.96512 11.9943C8.96512 13.814 10.4403 15.2892 12.2599 15.2892C14.0796 15.2892 15.5548 13.814 15.5548 11.9943C15.5548 10.1747 14.0796 8.69953 12.2599 8.69953ZM14.5309 11.4857C14.7877 11.1967 14.7617 10.7543 14.4727 10.4974C14.1838 10.2406 13.7413 10.2666 13.4845 10.5556L11.9803 12.2478L11.2569 11.5244C10.9835 11.251 10.5403 11.251 10.2669 11.5244C9.99355 11.7977 9.99355 12.2409 10.2669 12.5143L11.5153 13.7627C11.6516 13.899 11.8381 13.9731 12.0308 13.9674C12.2235 13.9617 12.4054 13.8769 12.5335 13.7328L14.5309 11.4857Z" fill="#8492A5"/>
</svg>
