<svg width="17" height="17" viewBox="0 0 17 17" fill="none" xmlns="http://www.w3.org/2000/svg">
<path fill-rule="evenodd" clip-rule="evenodd" d="M3.08867 0.62421C3.2185 0.429471 3.43706 0.3125 3.67111 0.3125H10.8618C11.0958 0.3125 11.3144 0.429471 11.4442 0.62421L13.8411 4.21954C13.9178 4.33453 13.9587 4.46964 13.9587 4.60783V7.62018C15.7119 8.30093 16.9548 10.0044 16.9548 11.9983C16.9548 14.5911 14.8528 16.6931 12.2599 16.6931C10.2661 16.6931 8.5626 15.4502 7.88186 13.6969H1.27422C0.887619 13.6969 0.574219 13.3835 0.574219 12.9969V4.60783C0.574219 4.46964 0.615125 4.33453 0.691784 4.21954L3.08867 0.62421ZM12.5587 5.20796V7.31279C12.4599 7.30658 12.3603 7.30344 12.2599 7.30344C9.66706 7.30344 7.56512 9.40538 7.56512 11.9983C7.56512 12.0986 7.56827 12.1982 7.57447 12.2969H1.97422V5.20796H12.5587ZM2.64876 3.80796L4.04574 1.7125H6.56644V3.80796H2.64876ZM7.96644 3.80796H11.8841L10.4871 1.7125H7.96644V3.80796ZM12.2599 8.70344C10.4403 8.70344 8.96512 10.1786 8.96512 11.9983C8.96512 13.8179 10.4403 15.2931 12.2599 15.2931C14.0796 15.2931 15.5548 13.8179 15.5548 11.9983C15.5548 10.1786 14.0796 8.70344 12.2599 8.70344ZM14.5309 11.4896C14.7877 11.2006 14.7617 10.7582 14.4727 10.5013C14.1838 10.2445 13.7413 10.2705 13.4845 10.5595L11.9803 12.2517L11.2569 11.5283C10.9835 11.2549 10.5403 11.2549 10.2669 11.5283C9.99355 11.8016 9.99355 12.2448 10.2669 12.5182L11.5153 13.7666C11.6516 13.9029 11.8381 13.977 12.0308 13.9713C12.2235 13.9656 12.4054 13.8808 12.5335 13.7367L14.5309 11.4896Z" fill="#657ACB"/>
</svg>
