<svg width="16" height="16" viewBox="0 0 16 16" fill="none" xmlns="http://www.w3.org/2000/svg">
<path
fill-rule="evenodd"
clip-rule="evenodd"
d="M8 16C12.4183 16 16 12.4183 16 8C16 3.58172 12.4183 0 8 0C3.58172 0 0 3.58172 0 8C0 12.4183 3.58172 16 8 16ZM8 4.48474C8.55228 4.48474 9 4.93246 9 5.48474V7H10.5154C11.0677 7 11.5154 7.44771 11.5154 8C11.5154 8.55228 11.0677 9 10.5154 9H9V10.5153C9 11.0676 8.55228 11.5153 8 11.5153C7.44772 11.5153 7 11.0676 7 10.5153V9H5.48486C4.93258 9 4.48486 8.55228 4.48486 8C4.48486 7.44772 4.93258 7 5.48486 7H7V5.48474C7 4.93246 7.44772 4.48474 8 4.48474Z"
fill="#657ACB"
/>
</svg>
