<svg width="16" height="16" viewBox="0 0 16 16" fill="none" xmlns="http://www.w3.org/2000/svg">
<path fill-rule="evenodd" clip-rule="evenodd" d="M8 16C12.4183 16 16 12.4183 16 8C16 3.58172 12.4183 0 8 0C3.58172 0 0 3.58172 0 8C0 12.4183 3.58172 16 8 16ZM8.00006 5.3333C8.36825 5.3333 8.66673 5.63178 8.66673 5.99997V7.33337H10.0001C10.3683 7.33337 10.6667 7.63184 10.6667 8.00003C10.6667 8.36822 10.3683 8.6667 10.0001 8.6667H8.66673V9.99997C8.66673 10.3682 8.36825 10.6666 8.00006 10.6666C7.63188 10.6666 7.3334 10.3682 7.3334 9.99997V8.6667H6.00006C5.63188 8.6667 5.3334 8.36822 5.3334 8.00003C5.3334 7.63184 5.63188 7.33337 6.00006 7.33337H7.3334V5.99997C7.3334 5.63178 7.63188 5.3333 8.00006 5.3333Z" fill="#657ACB"/>
</svg>
