<svg width="17" height="17" viewBox="0 0 17 17" fill="none" xmlns="http://www.w3.org/2000/svg">
<path fill-rule="evenodd" clip-rule="evenodd" d="M8.18855 0.402026C8.38562 0.303491 8.61758 0.303491 8.81465 0.402026L16.2879 4.13867C16.5251 4.25725 16.6749 4.49963 16.6749 4.76477C16.6749 5.02991 16.5251 5.2723 16.2879 5.39087L8.81465 9.12752C8.61758 9.22605 8.38562 9.22605 8.18855 9.12752L0.715259 5.39087C0.47811 5.2723 0.328308 5.02991 0.328308 4.76477C0.328308 4.49963 0.47811 4.25725 0.715259 4.13867L8.18855 0.402026ZM2.59356 4.76477L8.5016 7.7188L14.4096 4.76477L8.5016 1.81075L2.59356 4.76477ZM0.402179 11.9251C0.575072 11.5793 0.995543 11.4391 1.34133 11.612L8.50157 15.1921L15.6618 11.612C16.0076 11.4391 16.4281 11.5793 16.601 11.9251C16.7739 12.2709 16.6337 12.6913 16.2879 12.8642L8.81462 16.6009C8.61755 16.6994 8.38559 16.6994 8.18852 16.6009L0.715229 12.8642C0.369444 12.6913 0.229287 12.2709 0.402179 11.9251ZM1.34133 7.87532C0.995543 7.70243 0.575072 7.84259 0.402179 8.18837C0.229287 8.53416 0.369444 8.95463 0.715229 9.12752L8.18852 12.8642C8.38559 12.9627 8.61755 12.9627 8.81462 12.8642L16.2879 9.12752C16.6337 8.95463 16.7739 8.53416 16.601 8.18837C16.4281 7.84259 16.0076 7.70243 15.6618 7.87532L8.50157 11.4554L1.34133 7.87532Z" fill="#8492A5"/>
</svg>
