<svg width="17" height="17" viewBox="0 0 17 17" fill="none" xmlns="http://www.w3.org/2000/svg">
<path fill-rule="evenodd" clip-rule="evenodd" d="M8.50075 0.363281C4.00655 0.363281 0.363281 4.00655 0.363281 8.50075C0.363281 12.995 4.00655 16.6382 8.50075 16.6382C12.995 16.6382 16.6382 12.995 16.6382 8.50075C16.6382 4.00655 12.995 0.363281 8.50075 0.363281ZM1.76328 8.50075C1.76328 4.77975 4.77975 1.76328 8.50075 1.76328C12.2218 1.76328 15.2382 4.77975 15.2382 8.50075C15.2382 12.2218 12.2218 15.2382 8.50075 15.2382C4.77975 15.2382 1.76328 12.2218 1.76328 8.50075ZM7.26875 4.97956C7.54212 5.25293 7.54212 5.69614 7.26875 5.96951L6.43205 6.80621H9.82146C10.4603 6.80621 11.0703 7.06471 11.5181 7.52065C11.9655 7.97615 12.2146 8.59131 12.2146 9.23015V11.527C12.2146 11.9136 11.9012 12.227 11.5146 12.227C11.128 12.227 10.8146 11.9136 10.8146 11.527V9.23015C10.8146 8.95456 10.707 8.69274 10.5193 8.50164C10.332 8.31097 10.0808 8.20621 9.82146 8.20621H6.43183L7.26875 9.04314C7.54212 9.3165 7.54212 9.75972 7.26875 10.0331C6.99539 10.3065 6.55217 10.3065 6.27881 10.0331L4.24702 8.0013C4.16757 7.92185 4.11121 7.82806 4.07794 7.72826C4.05559 7.66119 4.04366 7.59141 4.04215 7.52145L4.04199 7.50621C4.04201 7.38789 4.07184 7.26958 4.13148 7.1635C4.13963 7.14901 4.14834 7.13474 4.1576 7.12073C4.18563 7.07832 4.21816 7.03914 4.25449 7.00388L6.27881 4.97956C6.55217 4.70619 6.99539 4.70619 7.26875 4.97956Z" fill="#8492A5"/>
</svg>
