<svg width="17" height="17" viewBox="0 0 17 17" fill="none" xmlns="http://www.w3.org/2000/svg">
<path fill-rule="evenodd" clip-rule="evenodd" d="M5.47264 0.488281C5.28698 0.488281 5.10894 0.562031 4.97766 0.693307L0.693307 4.97766C0.562031 5.10894 0.488281 5.28698 0.488281 5.47264V11.5263C0.488281 11.712 0.562031 11.89 0.693306 12.0213L4.97766 16.3056C5.10894 16.4369 5.28698 16.5107 5.47264 16.5107H11.5263C11.712 16.5107 11.89 16.4369 12.0213 16.3056L16.3056 12.0213C16.4369 11.89 16.5107 11.712 16.5107 11.5263V5.47264C16.5107 5.28698 16.4369 5.10894 16.3056 4.97766L12.0213 0.693306C11.89 0.562031 11.712 0.488281 11.5263 0.488281H5.47264ZM1.88828 5.76259L5.76259 1.88828H11.2364L15.1107 5.76259V11.2363L11.2363 15.1107H5.76259L1.88828 11.2364V5.76259ZM5.51871 6.29097C5.51871 5.99994 5.75464 5.76401 6.04567 5.76401C6.3367 5.76401 6.57262 5.99994 6.57262 6.29097C6.57262 6.582 6.3367 6.81792 6.04567 6.81792C5.75464 6.81792 5.51871 6.582 5.51871 6.29097ZM6.04567 4.36401C4.98144 4.36401 4.11871 5.22674 4.11871 6.29097C4.11871 7.3552 4.98144 8.21792 6.04567 8.21792C7.1099 8.21792 7.97262 7.3552 7.97262 6.29097C7.97262 5.22674 7.1099 4.36401 6.04567 4.36401ZM10.9534 10.1809C10.6624 10.1809 10.4265 10.4169 10.4265 10.7079C10.4265 10.9989 10.6624 11.2349 10.9534 11.2349C11.2445 11.2349 11.4804 10.9989 11.4804 10.7079C11.4804 10.4169 11.2445 10.1809 10.9534 10.1809ZM9.02649 10.7079C9.02649 9.64367 9.88922 8.78094 10.9534 8.78094C12.0177 8.78094 12.8804 9.64367 12.8804 10.7079C12.8804 11.7721 12.0177 12.6349 10.9534 12.6349C9.88922 12.6349 9.02649 11.7721 9.02649 10.7079ZM11.9587 5.78417C12.2209 5.5001 12.2032 5.05724 11.9191 4.79502C11.635 4.53279 11.1922 4.55051 10.9299 4.83458L5.04056 11.2147C4.77834 11.4988 4.79605 11.9417 5.08013 12.2039C5.3642 12.4661 5.80706 12.4484 6.06929 12.1643L11.9587 5.78417Z" fill="#657ACB"/>
</svg>
