<svg width="17" height="17" viewBox="0 0 17 17" fill="none" xmlns="http://www.w3.org/2000/svg">
<path fill-rule="evenodd" clip-rule="evenodd" d="M5.47264 0.492188C5.28698 0.492188 5.10894 0.565937 4.97766 0.697213L0.693307 4.98157C0.562031 5.11284 0.488281 5.29089 0.488281 5.47654V11.5302C0.488281 11.7159 0.562031 11.8939 0.693306 12.0252L4.97766 16.3095C5.10894 16.4408 5.28698 16.5146 5.47264 16.5146H11.5263C11.712 16.5146 11.89 16.4408 12.0213 16.3095L16.3056 12.0252C16.4369 11.8939 16.5107 11.7159 16.5107 11.5302V5.47654C16.5107 5.29089 16.4369 5.11284 16.3056 4.98157L12.0213 0.697213C11.89 0.565937 11.712 0.492188 11.5263 0.492188H5.47264ZM1.88828 5.76649L5.76259 1.89219H11.2364L15.1107 5.76649V11.2403L11.2363 15.1146H5.76259L1.88828 11.2403V5.76649ZM5.51871 6.29487C5.51871 6.00385 5.75464 5.76792 6.04567 5.76792C6.3367 5.76792 6.57262 6.00385 6.57262 6.29487C6.57262 6.5859 6.3367 6.82183 6.04567 6.82183C5.75464 6.82183 5.51871 6.5859 5.51871 6.29487ZM6.04567 4.36792C4.98144 4.36792 4.11871 5.23065 4.11871 6.29487C4.11871 7.3591 4.98144 8.22183 6.04567 8.22183C7.1099 8.22183 7.97262 7.3591 7.97262 6.29487C7.97262 5.23065 7.1099 4.36792 6.04567 4.36792ZM10.9534 10.1849C10.6624 10.1849 10.4265 10.4208 10.4265 10.7118C10.4265 11.0028 10.6624 11.2388 10.9534 11.2388C11.2445 11.2388 11.4804 11.0028 11.4804 10.7118C11.4804 10.4208 11.2445 10.1849 10.9534 10.1849ZM9.02649 10.7118C9.02649 9.64758 9.88922 8.78485 10.9534 8.78485C12.0177 8.78485 12.8804 9.64758 12.8804 10.7118C12.8804 11.776 12.0177 12.6388 10.9534 12.6388C9.88922 12.6388 9.02649 11.776 9.02649 10.7118ZM11.9587 5.78808C12.2209 5.50401 12.2032 5.06114 11.9191 4.79892C11.635 4.5367 11.1922 4.55441 10.9299 4.83849L5.04056 11.2186C4.77834 11.5027 4.79605 11.9456 5.08013 12.2078C5.3642 12.47 5.80706 12.4523 6.06929 12.1682L11.9587 5.78808Z" fill="#8492A5"/>
</svg>
