<svg width="13" height="13" viewBox="0 0 13 13" fill="none" xmlns="http://www.w3.org/2000/svg">
<path d="M12.805 11.895L10.4 9.49C11.18 8.515 11.7 7.215 11.7 5.85C11.7 2.6 9.1 0 5.85 0C2.6 0 0 2.6 0 5.85C0 9.1 2.6 11.7 5.85 11.7C7.215 11.7 8.515 11.245 9.49 10.4L11.895 12.805C12.025 12.935 12.22 13 12.35 13C12.48 13 12.675 12.935 12.805 12.805C13.065 12.545 13.065 12.155 12.805 11.895ZM1.3 5.85C1.3 3.315 3.315 1.3 5.85 1.3C8.385 1.3 10.4 3.315 10.4 5.85C10.4 7.085 9.88 8.255 9.1 9.035C8.255 9.88 7.15 10.335 5.915 10.335C3.315 10.4 1.3 8.385 1.3 5.85Z" fill="#8492A5"/>
</svg>
