<svg width="13" height="14" viewBox="0 0 13 14" fill="none" xmlns="http://www.w3.org/2000/svg">
<g opacity="0.4" clip-path="url(#clip0_1200_18248)">
<path d="M12.805 12.6177L10.4 10.2127C11.18 9.23766 11.7 7.93766 11.7 6.57266C11.7 3.32266 9.1 0.722656 5.85 0.722656C2.6 0.722656 0 3.32266 0 6.57266C0 9.82266 2.6 12.4227 5.85 12.4227C7.215 12.4227 8.515 11.9677 9.49 11.1227L11.895 13.5277C12.025 13.6577 12.22 13.7227 12.35 13.7227C12.48 13.7227 12.675 13.6577 12.805 13.5277C13.065 13.2677 13.065 12.8777 12.805 12.6177ZM1.3 6.57266C1.3 4.03766 3.315 2.02266 5.85 2.02266C8.385 2.02266 10.4 4.03766 10.4 6.57266C10.4 7.80766 9.88 8.97766 9.1 9.75766C8.255 10.6027 7.15 11.0577 5.915 11.0577C3.315 11.1227 1.3 9.10766 1.3 6.57266Z" fill="white"/>
</g>
<defs>
<clipPath id="clip0_1200_18248">
<rect width="13" height="13" fill="white" transform="translate(0 0.722656)"/>
</clipPath>
</defs>
</svg>
