<svg width="16" height="16" viewBox="0 0 16 16" fill="none" xmlns="http://www.w3.org/2000/svg">
<path fill-rule="evenodd" clip-rule="evenodd" d="M7.9995 0.632812C8.26593 0.632812 8.50927 0.784063 8.6272 1.02298L10.5245 4.86667L14.7674 5.48684C15.031 5.52537 15.2499 5.71017 15.332 5.96358C15.4142 6.21698 15.3454 6.49506 15.1546 6.68093L12.085 9.6707L12.8094 13.8945C12.8545 14.1571 12.7465 14.4225 12.5309 14.5791C12.3153 14.7358 12.0295 14.7564 11.7937 14.6324L7.9995 12.637L4.20532 14.6324C3.96947 14.7564 3.68367 14.7358 3.46809 14.5791C3.2525 14.4225 3.14453 14.1571 3.18957 13.8945L3.914 9.6707L0.84442 6.68093C0.653587 6.49506 0.584796 6.21698 0.666961 5.96358C0.749125 5.71017 0.968001 5.52537 1.23159 5.48684L5.47452 4.86667L7.37181 1.02298C7.48974 0.784063 7.73307 0.632812 7.9995 0.632812ZM7.9995 2.91429L6.5672 5.81598C6.46532 6.02238 6.26849 6.1655 6.04074 6.19879L2.83672 6.6671L5.15458 8.92469C5.31969 9.08551 5.39506 9.3173 5.35609 9.54447L4.80923 12.733L7.67369 11.2266C7.87765 11.1193 8.12135 11.1193 8.32532 11.2266L11.1898 12.733L10.6429 9.54447C10.6039 9.3173 10.6793 9.08551 10.8444 8.92469L13.1623 6.6671L9.95826 6.19879C9.73051 6.1655 9.53368 6.02238 9.43181 5.81598L7.9995 2.91429Z" fill="#FF685E"/>
</svg>
