<svg width="17" height="17" viewBox="0 0 17 17" fill="none" xmlns="http://www.w3.org/2000/svg">
<path fill-rule="evenodd" clip-rule="evenodd" d="M8.50152 0.210938C8.11283 0.210938 7.73098 0.313102 7.39423 0.507177L7.39275 0.508029L2.08412 3.54152L2.08142 3.54308C1.80641 3.70185 1.56945 3.9174 1.38581 4.17446C1.34229 4.21744 1.30373 4.26688 1.27162 4.32239C1.24384 4.37041 1.2224 4.42036 1.20705 4.47126C1.05352 4.77822 0.973009 5.11765 0.972656 5.46195V11.5328C0.973055 11.9216 1.07571 12.3036 1.27032 12.6402C1.46492 12.9769 1.74465 13.2565 2.08142 13.4509L2.08412 13.4525L7.39275 16.486L7.39407 16.4867C7.73086 16.6809 8.11277 16.7831 8.50152 16.7831C8.89026 16.7831 9.27217 16.6809 9.60896 16.4867L9.61028 16.486L14.9189 13.4525L14.9216 13.4509C15.2584 13.2565 15.5381 12.9769 15.7327 12.6402C15.9273 12.3036 16.03 11.9209 16.0304 11.5321L16.0304 5.46124C16.03 5.117 15.9495 4.7782 15.7961 4.47143C15.7807 4.42046 15.7593 4.37046 15.7315 4.32239C15.6993 4.26682 15.6607 4.21732 15.6171 4.1743C15.4335 3.91732 15.1966 3.70182 14.9216 3.54308L14.9189 3.54153L9.61028 0.508029L9.6088 0.507177C9.27205 0.313102 8.8902 0.210938 8.50152 0.210938ZM2.37266 11.5316V5.76798L7.80157 8.90842V15.1071L2.78142 12.2385L2.78035 12.2379C2.65667 12.1662 2.55393 12.0634 2.48239 11.9396C2.4107 11.8156 2.37286 11.6749 2.37266 11.5316ZM9.20157 15.1071L14.2216 12.2385L14.2227 12.2378C14.3464 12.1662 14.4491 12.0634 14.5206 11.9396C14.5923 11.8157 14.6301 11.6752 14.6304 11.5321L14.6304 5.76801L9.20157 8.90838V15.1071ZM8.91027 1.72047L13.9012 4.57243L11.9225 5.71705L6.57496 2.58779L8.09005 1.72202L8.09275 1.72046C8.21703 1.64871 8.35801 1.61094 8.50152 1.61094C8.64502 1.61094 8.78599 1.64872 8.91027 1.72047ZM8.50154 7.69596L10.5285 6.52342L5.1725 3.38919L3.10183 4.57242L8.50154 7.69596Z" fill="#8492A5"/>
</svg>
