<svg width="13" height="12" viewBox="0 0 13 12" fill="none" xmlns="http://www.w3.org/2000/svg">
<path fill-rule="evenodd" clip-rule="evenodd" d="M12.0414 1.5364C12.3928 1.18492 12.3928 0.615076 12.0414 0.263604C11.6899 -0.087868 11.12 -0.0878679 10.7686 0.263604L6.35952 4.67266L1.95046 0.263604C1.59899 -0.0878679 1.02914 -0.087868 0.677666 0.263604C0.326195 0.615076 0.326195 1.18492 0.677666 1.5364L5.08672 5.94546L0.677666 10.3545C0.326195 10.706 0.326195 11.2758 0.677666 11.6273C1.02914 11.9788 1.59899 11.9788 1.95046 11.6273L6.35952 7.21825L10.7686 11.6273C11.12 11.9788 11.6899 11.9788 12.0414 11.6273C12.3928 11.2758 12.3928 10.706 12.0414 10.3545L7.63232 5.94546L12.0414 1.5364Z" fill="#B0BBCB"/>
</svg>
