<svg width="18" height="15" viewBox="0 0 18 15" fill="none" xmlns="http://www.w3.org/2000/svg">
<path fill-rule="evenodd" clip-rule="evenodd" d="M9.1508 0.973358C8.24936 0.575218 7.26936 0.386762 6.28455 0.422178C5.29975 0.457593 4.33581 0.715957 3.46531 1.17782C2.5948 1.63968 1.84042 2.293 1.25894 3.0886C0.677466 3.88421 0.284056 4.80135 0.108328 5.771C-0.0674011 6.74065 -0.0208692 7.73752 0.24442 8.68658C0.50971 9.63564 0.986844 10.5122 1.6399 11.2501C1.8961 11.5396 2.3385 11.5667 2.62801 11.3105C2.91753 11.0543 2.94454 10.6119 2.68833 10.3223C2.17561 9.74296 1.80101 9.0548 1.59273 8.30969C1.38445 7.56458 1.34792 6.78193 1.48589 6.02066C1.62385 5.25938 1.93272 4.53933 2.38924 3.9147C2.84576 3.29007 3.43803 2.77714 4.12146 2.41453C4.8049 2.05192 5.56169 1.84908 6.33487 1.82127C7.10804 1.79347 7.87745 1.94143 8.58517 2.25401C9.29288 2.56659 9.92047 3.03565 10.4207 3.62587C10.9209 4.2161 11.2807 4.91211 11.473 5.6615C11.5524 5.97106 11.8314 6.18752 12.151 6.18752H13.0674C13.6911 6.18703 14.2987 6.38531 14.8021 6.75357C15.3055 7.12184 15.6785 7.64093 15.8669 8.23552C16.0553 8.8301 16.0493 9.46925 15.8498 10.0602C15.6503 10.6512 15.2677 11.1632 14.7575 11.522C14.4413 11.7443 14.3652 12.181 14.5875 12.4972C14.8099 12.8135 15.2466 12.8895 15.5628 12.6672C16.3164 12.1372 16.8816 11.3809 17.1763 10.508C17.4709 9.63506 17.4798 8.69095 17.2015 7.81267C16.9232 6.93438 16.3723 6.16762 15.6287 5.62365C14.8853 5.07979 13.9874 4.78692 13.0663 4.78752L12.6701 4.78752C12.4071 4.03335 12.0071 3.33243 11.4887 2.72072C10.8516 1.96895 10.0522 1.3715 9.1508 0.973358ZM8.70222 14.9104C8.31562 14.9104 8.00222 14.597 8.00222 14.2104L8.00222 9.36096L6.29062 11.0726C6.01725 11.3459 5.57404 11.3459 5.30067 11.0726C5.02731 10.7992 5.02731 10.356 5.30067 10.0826L8.175 7.20829C8.30331 7.0615 8.49194 6.96877 8.70222 6.96877C8.90438 6.96877 9.08653 7.05447 9.21431 7.19152L12.1054 10.0826C12.3788 10.356 12.3788 10.7992 12.1054 11.0726C11.832 11.3459 11.3888 11.3459 11.1154 11.0726L9.40222 9.35933L9.40222 14.2104C9.40222 14.597 9.08882 14.9104 8.70222 14.9104Z" fill="#657ACB"/>
</svg>
