<svg width="15" height="15" viewBox="0 0 15 15" fill="none" xmlns="http://www.w3.org/2000/svg">
<path fill-rule="evenodd" clip-rule="evenodd" d="M7.50078 1.94687C4.4356 1.94687 1.95078 4.43169 1.95078 7.49687C1.95078 10.5621 4.4356 13.0469 7.50078 13.0469C10.566 13.0469 13.0508 10.5621 13.0508 7.49687C13.0508 4.43169 10.566 1.94687 7.50078 1.94687ZM0.550781 7.49687C0.550781 3.6585 3.6624 0.546875 7.50078 0.546875C11.3392 0.546875 14.4508 3.6585 14.4508 7.49687C14.4508 11.3353 11.3392 14.4469 7.50078 14.4469C3.6624 14.4469 0.550781 11.3353 0.550781 7.49687ZM9.87076 5.1269C10.1441 5.40027 10.1441 5.84348 9.87076 6.11685L8.49073 7.49687L9.87076 8.8769C10.1441 9.15027 10.1441 9.59348 9.87076 9.86685C9.59739 10.1402 9.15417 10.1402 8.88081 9.86685L7.50078 8.48682L6.12076 9.86685C5.84739 10.1402 5.40417 10.1402 5.13081 9.86685C4.85744 9.59348 4.85744 9.15027 5.13081 8.8769L6.51083 7.49687L5.13081 6.11685C4.85744 5.84348 4.85744 5.40027 5.13081 5.1269C5.40417 4.85353 5.84739 4.85353 6.12076 5.1269L7.50078 6.50693L8.88081 5.1269C9.15417 4.85353 9.59739 4.85353 9.87076 5.1269Z" fill="#FEB0AB"/>
</svg>
