<svg width="15" height="15" viewBox="0 0 15 15" fill="none" xmlns="http://www.w3.org/2000/svg">
<path fill-rule="evenodd" clip-rule="evenodd" d="M7.50078 1.95078C4.4356 1.95078 1.95078 4.4356 1.95078 7.50078C1.95078 10.566 4.4356 13.0508 7.50078 13.0508C10.566 13.0508 13.0508 10.566 13.0508 7.50078C13.0508 4.4356 10.566 1.95078 7.50078 1.95078ZM0.550781 7.50078C0.550781 3.6624 3.6624 0.550781 7.50078 0.550781C11.3392 0.550781 14.4508 3.6624 14.4508 7.50078C14.4508 11.3392 11.3392 14.4508 7.50078 14.4508C3.6624 14.4508 0.550781 11.3392 0.550781 7.50078ZM9.87076 5.13081C10.1441 5.40417 10.1441 5.84739 9.87076 6.12076L8.49073 7.50078L9.87076 8.88081C10.1441 9.15417 10.1441 9.59739 9.87076 9.87076C9.59739 10.1441 9.15417 10.1441 8.88081 9.87076L7.50078 8.49073L6.12076 9.87076C5.84739 10.1441 5.40417 10.1441 5.13081 9.87076C4.85744 9.59739 4.85744 9.15417 5.13081 8.88081L6.51083 7.50078L5.13081 6.12076C4.85744 5.84739 4.85744 5.40417 5.13081 5.13081C5.40417 4.85744 5.84739 4.85744 6.12076 5.13081L7.50078 6.51083L8.88081 5.13081C9.15417 4.85744 9.59739 4.85744 9.87076 5.13081Z" fill="#B0BBCB"/>
</svg>
