<svg width="39" height="40" viewBox="0 0 39 40" fill="none" xmlns="http://www.w3.org/2000/svg">
<g clip-path="url(#clip0_1123_26884)">
<path d="M39.0017 39.9715C35.7139 39.9715 32.5151 39.9715 29.2718 39.9715C30.2073 38.83 30.2697 37.4906 30.3054 36.1603C30.3766 33.8592 30.0559 31.594 29.7084 29.3288C29.2807 26.5603 28.6926 23.8277 28.0332 21.1131C28.0154 21.0322 27.9887 20.9423 27.8729 20.8345C25.0661 27.1895 22.2594 33.5356 19.3993 39.9985C18.6062 38.2187 17.8489 36.5378 17.0559 34.7491C15.9866 36.5199 14.9709 38.2277 13.9016 40.0075C12.3513 36.6097 10.8365 33.2749 9.28616 29.8682C8.99212 30.4974 8.82282 31.0906 8.65353 31.6839C8.26148 33.0592 8.00309 34.4524 8.09219 35.8906C8.1902 37.6345 8.70699 38.6862 10.0881 39.9715C6.72001 39.9715 3.37868 39.9715 0.0195312 39.9715C1.37388 38.7041 1.92632 36.9963 2.53221 35.3423C4.05586 31.1805 5.09835 26.8749 6.15867 22.5783C6.22104 22.3176 6.13194 22.1109 6.05175 21.8862C5.32111 19.8727 4.439 17.9221 3.8331 15.8727C3.20048 13.7423 2.73715 11.576 2.82625 9.33784C2.91535 7.10863 3.53907 5.09515 5.17855 3.49515C6.06066 2.64122 7.10315 2.06594 8.35058 1.76032C6.99623 3.91762 7.32591 6.19178 7.65559 8.45695C7.82488 9.60751 8.09219 10.7401 8.51988 11.8547C8.9743 9.56256 9.41981 7.27043 9.90096 4.84346C12.2533 10.5333 14.5521 16.1154 16.8955 21.8053C17.1093 21.3289 17.2875 20.9513 17.4568 20.5648C19.1498 16.7176 20.8694 12.8884 22.5089 9.02324C23.2039 7.37829 23.9345 5.76931 25.0216 4.34009C26.7145 2.12886 28.8263 0.564813 31.6152 0.115375C33.1744 -0.13631 34.7248 0.00750985 36.2574 0.456948C33.9496 1.05021 32.7557 2.91987 31.4191 4.64571C30.6618 5.62549 30.537 6.58728 30.7687 7.79178C31.6597 12.5199 32.4438 17.2749 33.2635 22.021C33.9853 26.1918 34.6892 30.3626 35.4465 34.5333C35.8119 36.5289 36.6494 38.2906 38.3424 39.5311C38.5117 39.6659 38.7166 39.7828 39.0017 39.9715ZM6.61309 3.63897C5.27656 4.60077 4.48355 5.94908 4.04695 7.51313C3.29849 10.1828 3.70836 12.7895 4.64393 15.3064C6.01611 18.9918 7.50411 22.6322 8.93866 26.2817C10.2306 29.5626 11.5137 32.8524 12.8057 36.1333C13.1532 37.0142 13.5096 37.8951 13.8927 38.8479C13.9729 38.6862 14.0086 38.6053 14.0442 38.5244C15.9599 34.1109 17.8756 29.6974 19.8002 25.2839C21.8228 20.6367 23.8365 15.9895 25.8681 11.3513C26.7947 9.24796 27.5699 7.07268 28.8797 5.15807C29.9668 3.57605 31.2053 2.16481 32.925 1.25695C33.1923 1.11313 33.4685 0.978296 33.7358 0.843465C32.9873 0.762566 32.2745 0.888408 31.5706 1.05021C28.8441 1.67043 26.5809 3.01875 25.0572 5.4547C24.3177 6.63223 23.8544 7.95358 23.2841 9.22099C20.4952 15.4592 17.7241 21.6974 14.9352 27.9266C14.7303 28.394 14.5699 28.8884 14.2491 29.3558C14.16 29.1581 14.0888 29.0142 14.0264 28.8614C12.3067 24.8974 10.5781 20.9423 8.87629 16.9783C8.09219 15.1716 7.2279 13.3918 6.75565 11.4592C6.12303 8.87942 5.70425 6.29065 6.66655 3.6929C6.69328 3.66594 6.72892 3.62998 6.67546 3.59403C6.66655 3.59403 6.63091 3.62998 6.61309 3.63897ZM36.596 38.839C36.293 38.4524 36.097 38.1019 35.9366 37.7333C35.0634 35.6929 34.5377 33.5356 34.0209 31.3873C33.0942 27.5401 32.2834 23.6569 31.731 19.7289C31.232 16.2053 30.635 12.6996 30.0737 9.18504C29.9489 8.36706 29.8153 7.55807 29.6638 6.62324C29.5569 6.82099 29.4945 6.91088 29.4589 7.00077C28.158 9.94009 26.8571 12.8794 25.5562 15.8187C22.9099 21.7873 20.2635 27.7558 17.6083 33.7244C17.4925 33.976 17.4836 34.2008 17.5905 34.4524C17.8934 35.1715 18.1786 35.8906 18.4726 36.6097C18.7666 37.3378 19.0696 38.0569 19.4082 38.8749C22.5089 31.9985 25.574 25.23 28.6748 18.3626C28.7461 18.6322 28.7906 18.785 28.8263 18.9378C29.7262 23.1356 30.5994 27.3333 31.0805 31.603C31.3478 34.021 31.6864 36.439 31.1073 38.839C32.8982 38.839 34.6981 38.839 36.596 38.839ZM10.0346 7.66594C9.98115 7.7738 9.95442 7.80976 9.94551 7.84571C9.61583 9.78728 9.28616 11.7378 8.95648 13.6794C8.92084 13.8862 8.90302 14.0929 8.98321 14.2996C9.3218 15.2704 9.67821 16.2412 9.99006 17.221C10.097 17.5536 10.2752 17.6974 10.596 17.6794C10.8722 17.6614 11.0147 17.7783 11.1217 18.039C12.0305 20.2142 12.9572 22.3895 13.8749 24.5558C14.1066 25.1131 14.3561 25.6614 14.6323 26.2906C14.7303 26.1019 14.7838 26.003 14.8283 25.8951C15.2827 24.8884 15.7193 23.8727 16.1827 22.8749C16.2896 22.6412 16.3074 22.4524 16.2005 22.2008C14.2848 17.6884 12.3869 13.176 10.4801 8.66369C10.3465 8.34908 10.195 8.04346 10.0346 7.66594ZM7.85161 38.8839C7.57539 38.5064 7.37937 38.1648 7.24572 37.7783C6.83585 36.5648 6.89822 35.3154 7.03187 34.0839C7.24572 32.1423 7.82488 30.2817 8.50206 28.4569C8.57334 28.2592 8.58225 28.0974 8.51097 27.8996C8.19911 27.0098 7.89616 26.1199 7.59321 25.23C7.35264 24.5468 7.11206 23.8727 6.83585 23.0817C5.28547 28.4659 4.08259 33.8232 1.85504 38.8749C3.8331 38.8839 5.81117 38.8839 7.85161 38.8839Z" fill="white"/>
<path d="M6.66336 3.69532C5.70105 6.29308 6.11983 8.88184 6.75246 11.4616C7.2247 13.3942 8.08899 15.174 8.87309 16.9807C10.5838 20.9448 12.3035 24.9088 14.0232 28.8639C14.0856 29.0167 14.1568 29.1605 14.2459 29.3582C14.5667 28.8998 14.7271 28.3964 14.932 27.929C17.7209 21.6908 20.492 15.4526 23.2809 9.22341C23.8512 7.956 24.3145 6.63465 25.054 5.45712C26.5777 3.03016 28.832 1.68184 31.5674 1.05263C32.2713 0.890829 32.9841 0.773975 33.7326 0.845886C33.4653 0.980717 33.1891 1.11555 32.9218 1.25937C31.2021 2.17622 29.9636 3.58746 28.8765 5.16049C27.5578 7.0751 26.7826 9.25038 25.8649 11.3538C23.8333 15.992 21.8196 20.6391 19.797 25.2863C17.8813 29.6998 15.9656 34.1133 14.041 38.5268C14.0054 38.6077 13.9697 38.6796 13.8895 38.8504C13.5064 37.8976 13.15 37.0167 12.8025 36.1358C11.5105 32.8549 10.2274 29.565 8.93546 26.2841C7.50092 22.6257 6.004 18.9852 4.64074 15.3088C3.70516 12.792 3.29529 10.1852 4.04375 7.51555C4.48035 5.94251 5.27336 4.60319 6.60989 3.64139C6.62771 3.65937 6.64553 3.67735 6.66336 3.69532Z" fill="url(#paint0_linear_1123_26884)"/>
<path d="M36.5932 38.8407C34.6953 38.8407 32.8955 38.8407 31.0956 38.8407C31.6748 36.4407 31.3362 34.0228 31.0689 31.6048C30.5877 27.3351 29.7145 23.1374 28.8146 18.9396C28.779 18.7868 28.7344 18.634 28.6631 18.3643C25.5624 25.2317 22.5062 32.0093 19.3965 38.8767C19.0579 38.0587 18.7639 37.3396 18.4609 36.6115C18.1669 35.8924 17.8818 35.1733 17.5788 34.4542C17.4719 34.2025 17.4808 33.9778 17.5967 33.7261C20.2519 27.7576 22.8982 21.789 25.5446 15.8205C26.8454 12.8812 28.1463 9.94185 29.4472 7.00253C29.4918 6.91264 29.5452 6.82275 29.6522 6.625C29.8036 7.55983 29.9284 8.36882 30.062 9.1868C30.6145 12.7014 31.2115 16.207 31.7193 19.7306C32.2807 23.6587 33.0826 27.5329 34.0093 31.389C34.5261 33.5374 35.0518 35.6947 35.925 37.7351C36.0853 38.1037 36.2903 38.4542 36.5932 38.8407Z" fill="url(#paint1_linear_1123_26884)"/>
<path d="M10.0341 7.66797C10.2034 8.03651 10.346 8.35111 10.4885 8.67471C12.3953 13.1871 14.2932 17.6994 16.2089 22.2118C16.3158 22.4545 16.298 22.6433 16.1911 22.886C15.7277 23.8927 15.2822 24.8994 14.8367 25.9062C14.7921 26.014 14.7298 26.1129 14.6407 26.3017C14.3645 25.6725 14.1239 25.1242 13.8833 24.5669C12.9656 22.3916 12.0389 20.2253 11.1301 18.05C11.0231 17.7893 10.8717 17.6725 10.6044 17.6904C10.2836 17.7084 10.1054 17.5646 9.99846 17.232C9.6866 16.2522 9.33019 15.2815 8.9916 14.3107C8.92032 14.1039 8.93814 13.8972 8.96487 13.6904C9.29455 11.7489 9.62423 9.79831 9.95391 7.85673C9.945 7.81179 9.98064 7.77583 10.0341 7.66797Z" fill="url(#paint2_linear_1123_26884)"/>
<path d="M7.84814 38.887C5.79879 38.887 3.82963 38.887 1.85156 38.887C4.07912 33.8353 5.27308 28.469 6.83237 23.0938C7.10859 23.8848 7.35807 24.5589 7.58974 25.2421C7.9016 26.132 8.19563 27.0218 8.50749 27.9117C8.57877 28.1095 8.56986 28.2713 8.49858 28.469C7.82141 30.2938 7.23333 32.1454 7.0284 34.096C6.89474 35.3275 6.83237 36.5769 7.24224 37.7904C7.37589 38.1679 7.58083 38.5095 7.84814 38.887Z" fill="url(#paint3_linear_1123_26884)"/>
</g>
<defs>
<linearGradient id="paint0_linear_1123_26884" x1="22.2033" y1="0.824219" x2="1.58038" y2="27.1944" gradientUnits="userSpaceOnUse">
<stop stop-color="#F25146"/>
<stop offset="1" stop-color="#FF958E"/>
</linearGradient>
<linearGradient id="paint1_linear_1123_26884" x1="29.2756" y1="6.625" x2="11.2707" y2="23.8536" gradientUnits="userSpaceOnUse">
<stop stop-color="#F25146"/>
<stop offset="1" stop-color="#FF958E"/>
</linearGradient>
<linearGradient id="paint2_linear_1123_26884" x1="13.4673" y1="7.66797" x2="4.03221" y2="13.6759" gradientUnits="userSpaceOnUse">
<stop stop-color="#F25146"/>
<stop offset="1" stop-color="#FF958E"/>
</linearGradient>
<linearGradient id="paint3_linear_1123_26884" x1="5.9864" y1="23.0938" x2="-2.24886" y2="28.7462" gradientUnits="userSpaceOnUse">
<stop stop-color="#F25146"/>
<stop offset="1" stop-color="#FF958E"/>
</linearGradient>
<clipPath id="clip0_1123_26884">
<rect width="39" height="40" fill="white"/>
</clipPath>
</defs>
</svg>
